<?xml version="1.0" encoding="utf-8"?>
<!-- Generator: Adobe Illustrator 24.3.0, SVG Export Plug-In . SVG Version: 6.00 Build 0)  -->
<svg version="1.1" id="Layer_1" xmlns="http://www.w3.org/2000/svg" xmlns:xlink="http://www.w3.org/1999/xlink" x="0px" y="0px"
	 viewBox="0 0 694.7 603.13" style="enable-background:new 0 0 694.7 603.13;" xml:space="preserve">
<style type="text/css">
	.st0{fill:url(#SVGID_1_);}
	.st1{fill:url(#SVGID_2_);}
	.st2{fill:url(#SVGID_3_);}
	.st3{fill:#FFFFFF;}
	.st4{fill:#20B5C9;}
	.st5{fill:url(#SVGID_4_);}
	.st6{fill:url(#SVGID_5_);}
	.st7{fill:url(#SVGID_6_);}
	.st8{fill:url(#SVGID_7_);}
	.st9{fill:#032F46;}
	.st10{fill:url(#SVGID_8_);}
	.st11{fill:#45E8E5;}
	.st12{fill:url(#SVGID_9_);}
	.st13{fill:url(#SVGID_10_);}
	.st14{fill:#F65527;}
	.st15{fill:url(#SVGID_11_);}
</style>
<g>
	<linearGradient id="SVGID_1_" gradientUnits="userSpaceOnUse" x1="516.9932" y1="415.7962" x2="407.1554" y2="416.6611">
		<stop  offset="0.3065" style="stop-color:#11A3BB"/>
		<stop  offset="0.7161" style="stop-color:#05829A"/>
	</linearGradient>
	<path class="st0" d="M478.69,399.57c-31.84,1.84-80.96,24.17-98.37,32.54c26.78-0.06,52.69-0.1,76.49-0.1
		c31.76,0,59.74,0.07,80.96,0.23C531.68,420.93,511.03,397.7,478.69,399.57z"/>
	<linearGradient id="SVGID_2_" gradientUnits="userSpaceOnUse" x1="495.1851" y1="241.6822" x2="37.8878" y2="438.2227">
		<stop  offset="9.292942e-03" style="stop-color:#32E7DE"/>
		<stop  offset="0.499" style="stop-color:#02304A"/>
	</linearGradient>
	<path class="st1" d="M287.9,367.78c69.81-31.46,128.84-84.32,178.78-105.73c43.5-18.64,75.69-17.6,109.85-11.24
		c-15.45-7.9-32.49-12.26-48.71-12.44c-37.93-0.41-46.68-16.08-48.49-20.95c-2.26,0.79-4.53,1.64-6.81,2.57
		c-41.3,16.86-80.43,46.59-144.32,89.41c-62.28,41.73-171.29,89.71-280.48,80.5c2.46,4.76,5.29,9.32,8.56,13.57
		c1.6,2.09,3.29,4.06,5.04,5.93h82.48C175.56,403.59,238.1,390.22,287.9,367.78z"/>
	<linearGradient id="SVGID_3_" gradientUnits="userSpaceOnUse" x1="89.9261" y1="324.763" x2="378.8991" y2="146.7089">
		<stop  offset="0" style="stop-color:#F64025"/>
		<stop  offset="0.9302" style="stop-color:#FFA81F"/>
	</linearGradient>
	<path class="st2" d="M148.85,335.03c71.68-19.46,127.14-56.43,174.49-90.81c46.52-33.78,114.65-107,201.92-102.16
		c-10.91-26.2-28.52-53.33-54.52-74.08c-17-13.56-35.83-23.08-56.36-28.54c-10.49,5.87-28.54,18.46-46.61,42.61
		c-27.89,37.3-50.27,88.22-99.24,132.65c-48.97,44.43-96.65,66.81-137.84,81.41l78.81-14.27c0,0-68.49,49.72-175.36,46.29
		c-0.08,6.18,0.24,12.78,1.07,19.54C45.43,348.81,86.99,351.82,148.85,335.03z"/>
	<path class="st3" d="M161.39,356c74.59-20.32,142.81-64.76,200.86-107.57c57.03-42.05,107.5-74.38,173.82-72.13
		c-2.34-10.78-5.9-22.42-10.82-34.25c-87.27-4.83-155.39,68.39-201.92,102.16c-47.35,34.38-102.81,71.35-174.49,90.81
		C86.99,351.82,45.43,348.81,35.2,347.67c0.88,7.18,2.32,14.55,4.43,21.8C52.27,370.65,98.25,373.2,161.39,356z"/>
	<path class="st4" d="M407.01,390.04c-1.04-4.97-1.8-18.59,16.39-31.18c-9.6,4.12-23.14,10.06-41.26,18.31
		c-34.67,15.77-72.89,27.28-104.77,32.23h86.39C363.77,409.4,385.4,399.4,407.01,390.04z"/>
	<linearGradient id="SVGID_4_" gradientUnits="userSpaceOnUse" x1="380.9666" y1="34.783" x2="101.3991" y2="274.1344">
		<stop  offset="0.0358" style="stop-color:#FD9D15"/>
		<stop  offset="0.8226" style="stop-color:#E33A2D"/>
	</linearGradient>
	<path class="st5" d="M209.5,281.84l-78.81,14.27c41.19-14.59,88.86-36.97,137.84-81.41c48.97-44.43,71.35-95.35,99.24-132.65
		c18.07-24.16,36.12-36.74,46.61-42.61c-21.59-5.74-45.05-6.99-70.23-3.68c-50.61,6.65-86.66,31.79-107.15,74.71
		c-15.89,33.28-16.34,65.42-16.34,65.74c-0.08,9.34-7.67,16.88-17,16.88c-0.03,0-0.07,0-0.1,0c-9.37-0.05-16.93-7.66-16.9-17.03
		c0-1.14,0.18-21.16,7.43-47.34c-33.86,1.76-58.18,11.55-72.46,29.19c-23.23,28.7-13.46,70.84-13.35,71.26
		c1.26,5.08,0.1,10.42-3.12,14.54s-8.17,6.5-13.4,6.5c-7.14,0-44.12,13.82-54.6,53.06c-1.78,6.68-2.9,15.28-3.03,24.88
		C141.01,331.55,209.5,281.84,209.5,281.84z"/>
	<linearGradient id="SVGID_5_" gradientUnits="userSpaceOnUse" x1="523.1822" y1="297.1812" x2="181.3443" y2="465.1812">
		<stop  offset="0.2095" style="stop-color:#5BF3ED"/>
		<stop  offset="0.5329" style="stop-color:#0781A5"/>
	</linearGradient>
	<path class="st6" d="M466.69,262.05c-49.95,21.41-108.97,74.27-178.78,105.73c-49.8,22.44-112.34,35.8-144.11,41.62h70.46
		c19.03-3.5,58.73-11.57,89.62-22.97c39.4-14.55,84.47-35.47,139.43-66.73c-2.61-28.67,33.26-47.72,59.38-51.81
		c26.92-4.22,69.41-8.11,107.68,28.86c7.65,7.39,14.02,14.95,19.31,22.32c-5-30.93-26.74-54.76-53.14-68.26
		C542.38,244.45,510.19,243.41,466.69,262.05z"/>
	<linearGradient id="SVGID_6_" gradientUnits="userSpaceOnUse" x1="86.8851" y1="387.9685" x2="710.5607" y2="96.0767">
		<stop  offset="0.4023" style="stop-color:#021E35"/>
		<stop  offset="0.5539" style="stop-color:#054F64"/>
	</linearGradient>
	<path class="st7" d="M328.2,309.4c63.89-42.81,103.03-72.54,144.32-89.41c2.28-0.93,4.55-1.78,6.81-2.57
		c-0.33-0.9-0.43-1.43-0.43-1.43s0.1,0.53,0.43,1.43c38.7-13.51,73.79-7.05,73.79-7.05c-7.6-1.28-13.34-7.5-14.06-15.18
		c-0.55-5.86-1.53-12.22-2.98-18.9c-66.33-2.25-116.79,30.08-173.82,72.13C304.2,291.24,235.98,335.67,161.39,356
		c-63.14,17.2-109.12,14.66-121.75,13.47c2.04,7.01,4.7,13.91,8.08,20.44C156.91,399.12,265.92,351.13,328.2,309.4z"/>
	<path class="st3" d="M655.44,298.17c-9.57-30.41-29.38-54.34-58.9-71.12c-22.84-12.98-43.22-16.64-43.43-16.67
		c0,0-35.08-6.46-73.79,7.05c1.81,4.87,10.56,20.54,48.49,20.95c16.22,0.18,33.26,4.54,48.71,12.44c5.06,0.94,10.16,2,15.34,3.13
		c-5.19-1.13-10.29-2.19-15.34-3.13c26.4,13.5,48.14,37.33,53.14,68.26c14.98,20.85,21.34,40.14,23.78,49.65
		C660.61,350.7,664.42,326.7,655.44,298.17z"/>
	<linearGradient id="SVGID_7_" gradientUnits="userSpaceOnUse" x1="471.079" y1="267.3618" x2="693.7817" y2="427.3618">
		<stop  offset="0.1454" style="stop-color:#021E35"/>
		<stop  offset="0.6887" style="stop-color:#054F64"/>
	</linearGradient>
	<path class="st8" d="M630.15,322.38c-0.13-1.11-0.3-2.21-0.47-3.3c-5.29-7.37-11.66-14.93-19.31-22.32
		c-38.27-36.97-80.76-33.08-107.68-28.86c-26.11,4.09-61.99,23.14-59.38,51.81c3.85-2.19,7.75-4.43,11.7-6.72
		c58.88-34.19,166.96-11.92,172.31,94.5c4.03-3.89,7.84-8.13,11.31-12.67c4.75-6.21,10.41-15.02,14.81-26.08
		c-2.44-9.51-8.8-28.8-23.78-49.65C629.85,320.17,630.01,321.27,630.15,322.38z"/>
	<path class="st9" d="M456.45,344.66c-2.27,1.25-4.55,2.56-6.84,3.97C451.9,347.22,454.18,345.9,456.45,344.66
		c-3.42,0.92-6.87,1.97-10.35,3.18c-9.72,3.39-17.1,7.16-22.69,11.03c13.08-5.61,18.85-7.84,18.85-7.84s-5.77,2.22-18.85,7.84
		c-18.2,12.58-17.44,26.21-16.39,31.18c11.87-5.14,23.73-10.08,32-13.07c23.08-8.34,100.45-18.67,127.29,55.65
		c3.03,0.07,5.61,0.14,7.67,0.23c6.54,0.26,13.73-1.19,21.08-4.05c-1.85-11.6-8.2-36.51-28.68-57.62
		C541.44,345.5,501.53,332.56,456.45,344.66z"/>
	<linearGradient id="SVGID_8_" gradientUnits="userSpaceOnUse" x1="362.8135" y1="424.9803" x2="567.1378" y2="354.9262">
		<stop  offset="0.2044" style="stop-color:#11A3BB"/>
		<stop  offset="0.6421" style="stop-color:#FFFFFF"/>
	</linearGradient>
	<path class="st10" d="M455.01,312.97c-3.95,2.29-7.85,4.53-11.7,6.72c0.08,0.88,0.2,1.78,0.35,2.68c-0.16-0.9-0.27-1.8-0.35-2.68
		c-54.96,31.26-100.03,52.19-139.43,66.73c-30.89,11.41-70.6,19.47-89.62,22.97h63.12c31.88-4.95,70.1-16.46,104.77-32.23
		c18.12-8.24,31.65-14.19,41.26-18.31c5.59-3.87,12.97-7.64,22.69-11.03c3.48-1.21,6.93-2.26,10.35-3.18
		c56.31-30.97,104.35-13.4,125.86,13.72c19.3,24.34,21.23,57.71,21.4,66.44c8.16-4.33,16.26-10.25,23.62-17.35
		C621.97,301.05,513.89,278.79,455.01,312.97z"/>
	<path class="st11" d="M456.45,344.66c45.09-12.1,85,0.84,109.92,26.52c20.49,21.11,26.83,46.03,28.68,57.62
		c2.87-1.12,5.77-2.45,8.66-3.99c-0.17-8.72-2.1-42.1-21.4-66.44C560.8,331.25,512.76,313.69,456.45,344.66z"/>
	<path class="st3" d="M439.01,376.97c-8.28,2.99-20.14,7.93-32,13.07c0.26,1.25,0.54,1.96,0.54,1.96s-0.28-0.71-0.54-1.96
		c-21.61,9.36-43.24,19.36-43.24,19.36h-86.39c-7.49,1.16-14.62,1.97-21.28,2.38c6.66-0.41,13.8-1.22,21.28-2.38h-63.12
		c-6.94,1.28-11.13,1.95-11.13,1.95s4.19-0.67,11.13-1.95H143.8c-12.77,2.34-20.57,3.46-20.57,3.46s7.8-1.12,20.57-3.46H61.31
		c14.59,15.55,34.28,23.43,58.67,23.43c27.21,0,71.81-0.15,123.45-0.32c44.05-0.15,91.69-0.31,136.88-0.41
		c17.41-8.36,66.53-30.7,98.37-32.54c32.34-1.87,52.99,21.36,59.08,32.68c11.75,0.09,21.43,0.22,28.53,0.38
		C539.46,358.31,462.09,368.64,439.01,376.97z"/>
	<linearGradient id="SVGID_9_" gradientUnits="userSpaceOnUse" x1="-50.4297" y1="426.9792" x2="1017.246" y2="22.2225">
		<stop  offset="0.4023" style="stop-color:#021E35"/>
		<stop  offset="0.5539" style="stop-color:#054F64"/>
	</linearGradient>
	<path class="st12" d="M612.15,196.82c-15.97-8.92-30.82-14.12-40.79-16.96c-6.98-43.65-30.79-99.65-79.42-138.46
		C450.16,8.06,397.52-5.55,339.72,2.05c-76.97,10.12-114.59,55.21-132.73,92.37c-51.54-0.24-89.22,13.99-112,42.36
		c-22.67,28.23-24.03,62.84-22.32,83.23c-24.6,8.66-57.09,32.35-68.35,74.46c-9.57,35.82-4.06,91.87,24.99,129.71
		c21.43,27.91,52.78,42.66,90.68,42.66c27.26,0,71.89-0.15,123.57-0.32c125.21-0.42,296.7-1,329.04,0.31
		c0.95,0.04,1.91,0.06,2.87,0.06c30.98,0,66.06-19.91,90.17-51.42c12.97-16.95,22.05-36.61,26.24-56.84
		c4.8-23.16,3.46-46.94-4.01-70.66C675.68,249.2,649.5,217.68,612.15,196.82z M654.8,374.92c0,0-0.34-2.26-1.35-6.19
		c-4.4,11.06-10.06,19.87-14.81,26.08c-3.47,4.54-7.28,8.78-11.31,12.67c0.13,2.62,0.22,5.27,0.23,7.99
		c-0.01-2.72-0.09-5.37-0.23-7.99c-7.36,7.1-15.46,13.01-23.62,17.35c0.03,1.39,0.01,2.16,0.01,2.16s0.02-0.77-0.01-2.16
		c-2.89,1.53-5.79,2.87-8.66,3.99c0.57,3.58,0.72,5.91,0.72,6.44c0-0.54-0.15-2.86-0.72-6.44c-7.34,2.86-14.54,4.31-21.08,4.05
		c-2.06-0.08-4.63-0.16-7.67-0.23c0.31,0.87,0.63,1.73,0.92,2.62c-0.3-0.89-0.61-1.75-0.92-2.62c-7.11-0.16-16.78-0.29-28.53-0.38
		c1.3,2.41,1.95,4.3,1.89,5.27c0.06-0.97-0.59-2.85-1.89-5.27c-21.23-0.17-49.21-0.23-80.96-0.23c-23.8,0-49.71,0.04-76.49,0.1
		c-4.05,1.95-6.39,3.14-6.39,3.14s2.34-1.19,6.39-3.14c-45.19,0.1-92.83,0.26-136.88,0.41c-51.64,0.17-96.25,0.32-123.45,0.32
		c-24.39,0-44.08-7.88-58.67-23.43h-6.95h6.95c-1.75-1.87-3.44-3.84-5.04-5.93c-3.26-4.25-6.09-8.81-8.56-13.57
		c-2.83-0.24-5.66-0.51-8.49-0.82c2.83,0.32,5.66,0.58,8.49,0.82c-3.38-6.53-6.04-13.42-8.08-20.44c-2.29-0.22-3.49-0.39-3.49-0.39
		s1.2,0.17,3.49,0.39c-2.11-7.25-3.55-14.62-4.43-21.8c-1.62-0.18-2.46-0.32-2.46-0.32s0.84,0.13,2.46,0.32
		c-0.83-6.76-1.15-13.35-1.07-19.54c-1.97-0.06-3.94-0.14-5.94-0.24c1.99,0.1,3.97,0.18,5.94,0.24c0.13-9.59,1.24-18.2,3.03-24.88
		c10.49-39.24,47.47-53.06,54.6-53.06c5.23,0,10.17-2.38,13.4-6.5s4.38-9.46,3.12-14.54c-0.1-0.42-9.87-42.56,13.35-71.26
		c14.27-17.64,38.6-27.42,72.46-29.19c-7.25,26.18-7.43,46.2-7.43,47.34c-0.03,9.37,7.53,16.98,16.9,17.03c0.03,0,0.07,0,0.1,0
		c9.33,0,16.92-7.54,17-16.88c0-0.32,0.45-32.46,16.34-65.74c20.49-42.92,56.54-68.06,107.15-74.71
		c25.18-3.31,48.64-2.06,70.23,3.68c5.7-3.2,9.18-4.41,9.18-4.41s-3.47,1.22-9.18,4.41c20.52,5.46,39.36,14.97,56.36,28.54
		c26,20.74,43.61,47.87,54.52,74.08c1.55,0.09,3.11,0.19,4.68,0.33c-1.57-0.14-3.12-0.24-4.68-0.33
		c4.93,11.83,8.49,23.47,10.82,34.25c1.19,0.04,2.38,0.07,3.59,0.13c-1.2-0.06-2.39-0.09-3.59-0.13c1.45,6.68,2.44,13.04,2.98,18.9
		c0.72,7.68,6.46,13.9,14.06,15.18c0.2,0.04,20.58,3.69,43.43,16.67c29.52,16.78,49.33,40.7,58.9,71.12
		c8.98,28.54,5.17,52.54-2,70.56C654.46,372.66,654.8,374.92,654.8,374.92z"/>
	<linearGradient id="SVGID_10_" gradientUnits="userSpaceOnUse" x1="141.0655" y1="513.3907" x2="549.0654" y2="513.3907">
		<stop  offset="0.132" style="stop-color:#EB4A2C"/>
		<stop  offset="0.876" style="stop-color:#FF950E"/>
	</linearGradient>
	<path class="st13" d="M529.28,533.49H160.85c-10.93,0-19.78-8.86-19.78-19.78v-0.62c0-10.93,8.86-19.78,19.78-19.78h368.43
		c10.93,0,19.78,8.86,19.78,19.78v0.62C549.07,524.63,540.21,533.49,529.28,533.49z"/>
	<path class="st14" d="M244.36,603.13h-43.03c-11.37,0-20.59-9.22-20.59-20.59v0c0-11.37,9.22-20.59,20.59-20.59h43.03
		c11.37,0,20.59,9.22,20.59,20.59v0C264.96,593.91,255.74,603.13,244.36,603.13z"/>
	<linearGradient id="SVGID_11_" gradientUnits="userSpaceOnUse" x1="413.8054" y1="582.4601" x2="324.2919" y2="582.6223">
		<stop  offset="0.3658" style="stop-color:#FF7812"/>
		<stop  offset="0.5831" style="stop-color:#FB681D"/>
	</linearGradient>
	<path class="st15" d="M393.44,603.13h-46.81c-11.37,0-20.59-9.22-20.59-20.59v0c0-11.37,9.22-20.59,20.59-20.59h46.81
		c11.37,0,20.59,9.22,20.59,20.59v0C414.04,593.91,404.82,603.13,393.44,603.13z"/>
</g>
</svg>
